<?xml version="1.0" standalone="no"?>
<!DOCTYPE svg PUBLIC "-//W3C//DTD SVG 20010904//EN"
 "http://www.w3.org/TR/2001/REC-SVG-20010904/DTD/svg10.dtd">
<svg version="1.0" xmlns="http://www.w3.org/2000/svg"
 width="400.000000pt" height="400.000000pt" viewBox="0 0 400.000000 400.000000"
 preserveAspectRatio="xMidYMid meet">
<metadata>
Created by potrace 1.14, written by Peter Selinger 2001-2017
</metadata>
<g transform="translate(0.000000,400.000000) scale(0.100000,-0.100000)"
fill="#000000" stroke="none">
<path d="M1858 3665 c-2 -2 -22 -7 -43 -11 -133 -21 -235 -78 -270 -151 -16
-33 -29 -45 -65 -59 -84 -31 -218 -110 -300 -174 -21 -17 -32 -19 -70 -12
-119 22 -190 -51 -190 -193 0 -44 -5 -59 -34 -96 -131 -173 -227 -383 -262
-574 -21 -120 -29 -363 -11 -391 8 -14 -1 -25 -52 -59 -48 -32 -85 -82 -102
-136 -15 -45 -22 -950 -8 -1001 13 -51 66 -117 113 -141 48 -25 129 -28 238
-9 46 7 110 14 143 15 l60 2 13 -64 c13 -67 39 -113 75 -133 57 -32 110 -45
192 -47 81 -2 90 -4 116 -30 15 -16 45 -37 66 -47 36 -18 67 -19 543 -19 503
0 505 0 551 22 25 13 59 37 77 54 31 30 32 30 149 33 103 2 124 5 160 25 49
28 82 82 86 144 2 26 9 53 16 60 11 15 25 13 166 -19 11 -2 52 -5 91 -5 115 0
183 39 227 131 21 44 22 54 22 525 0 434 -2 484 -18 525 -19 51 -74 114 -106
125 -20 6 -20 12 -17 143 3 121 -4 233 -18 298 -2 12 -7 37 -10 56 -11 70 -59
205 -107 302 -55 109 -73 137 -136 213 -38 45 -43 57 -43 100 0 67 -16 119
-50 156 -27 31 -31 32 -108 33 -72 0 -84 3 -119 29 -21 16 -40 31 -43 34 -10
12 -68 43 -172 94 -79 39 -109 58 -116 77 -14 36 -69 88 -122 115 -89 45 -155
57 -336 61 -94 2 -173 2 -176 -1z"/>
</g>
</svg>
